<svg xmlns="http://www.w3.org/2000/svg" viewBox="0 0 1280 720" role="img" aria-labelledby="title desc">
  <title id="title">Website redesign hero creative</title>
  <desc id="desc">A sample Contify website redesign creative with a dashboard preview and editorial workflow labels.</desc>
  <rect width="1280" height="720" fill="#0f172a"/>
  <circle cx="1080" cy="80" r="260" fill="#0e7490" opacity=".35"/>
  <circle cx="1160" cy="640" r="300" fill="#2563eb" opacity=".28"/>
  <text x="88" y="116" fill="#67e8f9" font-family="Arial, sans-serif" font-size="22" font-weight="700" letter-spacing="4">CONTIFY / WEBSITE REDESIGN</text>
  <text x="88" y="238" fill="#f8fafc" font-family="Arial, sans-serif" font-size="72" font-weight="700">Make every</text>
  <text x="88" y="318" fill="#67e8f9" font-family="Arial, sans-serif" font-size="72" font-weight="700">review count.</text>
  <text x="92" y="370" fill="#cbd5e1" font-family="Arial, sans-serif" font-size="22">A fictional sample creative for the Contify recruiter demo.</text>
  <rect x="88" y="470" width="220" height="58" rx="12" fill="#67e8f9"/>
  <text x="126" y="507" fill="#082f49" font-family="Arial, sans-serif" font-size="20" font-weight="700">VIEW CAMPAIGN</text>
  <rect x="690" y="126" width="478" height="438" rx="22" fill="#f8fafc"/>
  <rect x="720" y="158" width="418" height="42" rx="10" fill="#e2e8f0"/>
  <circle cx="746" cy="179" r="8" fill="#22c55e"/>
  <rect x="774" y="171" width="122" height="16" rx="8" fill="#94a3b8"/>
  <rect x="720" y="236" width="190" height="238" rx="16" fill="#dbeafe"/>
  <rect x="742" y="260" width="146" height="20" rx="10" fill="#2563eb"/>
  <rect x="742" y="302" width="118" height="12" rx="6" fill="#64748b"/>
  <rect x="742" y="330" width="142" height="12" rx="6" fill="#94a3b8"/>
  <rect x="742" y="382" width="104" height="48" rx="12" fill="#0f172a"/>
  <rect x="938" y="236" width="200" height="238" rx="16" fill="#ecfeff"/>
  <rect x="962" y="260" width="124" height="124" rx="62" fill="#06b6d4" opacity=".75"/>
  <path d="M982 382h112" stroke="#0e7490" stroke-width="12" stroke-linecap="round"/>
  <path d="M982 416h76" stroke="#67e8f9" stroke-width="12" stroke-linecap="round"/>
</svg>
